# xmcd
#
# Track frame offsets:
#	150
#	2962
#	20297
#	37725
#	41202
#	66667
#	86640
#	89552
#	106882
#	142847
#	145222
#	162775
#	206075
#	209435
#
# Disc length: 3521 seconds
#
# Revision: 0
# Processed by: cddbd v1.4PL0 Copyright (c) Steve Scherf et al.
# Submitted via: audiograbber 1.81.02
#
DISCID=c30dbf0e
DTITLE=The Original Blues Project - Reunion In Central Park
DYEAR=1973
DGENRE=Blues
TTITLE0=Introduction: Ron Delsener
TTITLE1=Louisana Blues
TTITLE2=Steve's Song
TTITLE3=Introduction: Al and Andy
TTITLE4=I Can't Keep From Cryin' Sometimes
TTITLE5=You Can't Catch Me
TTITLE6=Introduction: Al
TTITLE7=Fly Away
TTITLE8=Caress Me Baby
TTITLE9=Introduction: Andy
TTITLE10=Catch the Wind
TTITLE11=(I Heard Her Say) Wake Me, Shake Me
TTITLE12=Introduction: Danny Kalb
TTITLE13=Two Trains Running Closing: Audience
EXTD=
EXTT0=
EXTT1=
EXTT2=
EXTT3=
EXTT4=
EXTT5=
EXTT6=
EXTT7=
EXTT8=
EXTT9=
EXTT10=
EXTT11=
EXTT12=
EXTT13=
PLAYORDER=
